<?xml version="1.0" encoding="UTF-8" standalone="no"?>
<svg
   width="60.960mm"
   height="128.5mm"
   viewBox="0 0 60.960 128.5"
   version="1.1"
   id="svg199"
   xmlns="http://www.w3.org/2000/svg"
   xmlns:svg="http://www.w3.org/2000/svg">
  <defs
     id="defs7">
    <linearGradient
       id="secgrad"
       x1="0"
       y1="0"
       x2="0"
       y2="1">
      <stop
         offset="0"
         stop-color="#D9DBDE"
         id="stop2" />
      <stop
         offset="1"
         stop-color="#BEC1C5"
         id="stop4" />
    </linearGradient>
  </defs>
  <rect
     x="0"
     y="0"
     width="60.960"
     height="128.5"
     fill="#2E2F31"
     id="rect9" />
  <rect
     x="0"
     y="0"
     width="1.4"
     height="128.5"
     fill="#795336"
     id="rect11" />
  <rect
     x="59.560"
     y="0"
     width="1.4"
     height="128.5"
     fill="#795336"
     id="rect13" />
  <rect
     x="1.1"
     y="0"
     width="0.3"
     height="128.5"
     fill="#5E3F28"
     id="rect15" />
  <rect
     x="59.560"
     y="0"
     width="0.3"
     height="128.5"
     fill="#5E3F28"
     id="rect17" />
  <rect
     x="2.500"
     y="2.500"
     width="55.960"
     height="42.500"
     rx="1.0"
     fill="url(#secgrad)"
     stroke="#8E9196"
     stroke-width="0.3"
     id="rect19" />
  <g
     aria-label="VOICE VARIATION"
     id="text21"
     style="font-weight:bold;font-size:3.2px;font-family:'Liberation Sans';text-anchor:middle;fill:#f4f5f7">
    <path
       d="M 17.977187,7.3200002 H 17.51 L 16.695937,5.1184376 h 0.48125 l 0.453125,1.4140626 q 0.04219,0.1375 0.115625,0.415625 l 0.03281,-0.134375 0.07969,-0.28125 L 18.31,5.1184376 h 0.476562 z"
       id="path203" />
    <path
       d="m 21.163125,6.2090627 q 0,0.34375 -0.135938,0.6046875 -0.135937,0.2609375 -0.389062,0.4 -0.253125,0.1375 -0.590625,0.1375 -0.51875,0 -0.814063,-0.3046875 -0.29375,-0.30625 -0.29375,-0.8375 0,-0.5296876 0.29375,-0.8265626 0.29375,-0.296875 0.817188,-0.296875 0.523437,0 0.817187,0.3 0.295313,0.3 0.295313,0.8234376 z m -0.470313,0 q 0,-0.3562501 -0.16875,-0.5578126 -0.16875,-0.203125 -0.473437,-0.203125 -0.309375,0 -0.478125,0.2015625 -0.16875,0.2 -0.16875,0.5593751 0,0.3625 0.171875,0.571875 0.173437,0.2078125 0.471875,0.2078125 0.309375,0 0.476562,-0.203125 0.16875,-0.203125 0.16875,-0.5765625 z"
       id="path205" />
    <path
       d="M 21.511563,7.3200002 V 5.1184376 H 21.9725 v 2.2015626 z"
       id="path207" />
    <path
       d="m 23.42875,6.9887502 q 0.417187,0 0.579687,-0.41875 L 24.41,6.7215627 q -0.129688,0.31875 -0.38125,0.475 -0.25,0.1546875 -0.6,0.1546875 -0.53125,0 -0.821875,-0.3 -0.289063,-0.3015625 -0.289063,-0.8421875 0,-0.5421876 0.279688,-0.8328126 0.279687,-0.290625 0.810937,-0.290625 0.3875,0 0.63125,0.15625 0.24375,0.1546875 0.342188,0.45625 l -0.40625,0.1109375 q -0.05156,-0.165625 -0.203125,-0.2625 -0.15,-0.098437 -0.354688,-0.098437 -0.3125,0 -0.475,0.19375 -0.160937,0.19375 -0.160937,0.5671876 0,0.3796875 0.165625,0.5796875 0.167187,0.2 0.48125,0.2 z"
       id="path209" />
    <path
       d="M 24.711562,7.3200002 V 5.1184376 h 1.73125 v 0.35625 H 25.1725 v 0.5531251 h 1.175 v 0.35625 h -1.175 v 0.5796875 h 1.334375 v 0.35625 z"
       id="path211" />
    <path
       d="M 28.824062,7.3200002 H 28.356875 L 27.542812,5.1184376 h 0.48125 l 0.453125,1.4140626 q 0.04219,0.1375 0.115625,0.415625 l 0.03281,-0.134375 0.07969,-0.28125 0.451563,-1.4140626 h 0.476562 z"
       id="path213" />
    <path
       d="m 31.188125,7.3200002 -0.195312,-0.5625 H 30.15375 l -0.195312,0.5625 H 29.4975 l 0.803125,-2.2015626 h 0.54375 l 0.8,2.2015626 z M 30.5725,5.4575001 l -0.0094,0.034375 q -0.01563,0.05625 -0.0375,0.128125 -0.02188,0.071875 -0.26875,0.7906251 h 0.632813 L 30.6725,5.7778126 l -0.06719,-0.2125 z"
       id="path215" />
    <path
       d="M 33.455313,7.3200002 32.944376,6.4840627 H 32.403751 V 7.3200002 H 31.942813 V 5.1184376 h 1.1 q 0.39375,0 0.607813,0.1703125 0.214062,0.16875 0.214062,0.4859375 0,0.2312501 -0.13125,0.4000001 -0.13125,0.1671875 -0.354687,0.2203125 l 0.595312,0.925 z m -0.05469,-1.5265626 q 0,-0.3171875 -0.40625,-0.3171875 h -0.590625 v 0.6500001 h 0.603125 q 0.19375,0 0.29375,-0.0875 0.1,-0.0875 0.1,-0.2453126 z"
       id="path217" />
    <path
       d="M 34.25375,7.3200002 V 5.1184376 h 0.460938 v 2.2015626 z"
       id="path219" />
    <path
       d="m 36.699063,7.3200002 -0.195313,-0.5625 h -0.839062 l -0.195313,0.5625 h -0.460937 l 0.803125,-2.2015626 h 0.54375 l 0.8,2.2015626 z m -0.615625,-1.8625001 -0.0094,0.034375 q -0.01563,0.05625 -0.0375,0.128125 -0.02188,0.071875 -0.26875,0.7906251 h 0.632812 l -0.217187,-0.6328126 -0.06719,-0.2125 z"
       id="path221" />
    <path
       d="M 38.21,5.4746876 V 7.3200002 H 37.749062 V 5.4746876 h -0.710937 v -0.35625 H 38.9225 v 0.35625 z"
       id="path223" />
    <path
       d="M 39.170939,7.3200002 V 5.1184376 h 0.460937 v 2.2015626 z"
       id="path225" />
    <path
       d="m 42.200625,6.2090627 q 0,0.34375 -0.135938,0.6046875 -0.135937,0.2609375 -0.389062,0.4 -0.253125,0.1375 -0.590625,0.1375 -0.51875,0 -0.814063,-0.3046875 -0.29375,-0.30625 -0.29375,-0.8375 0,-0.5296876 0.29375,-0.8265626 0.29375,-0.296875 0.817188,-0.296875 0.523437,0 0.817187,0.3 0.295313,0.3 0.295313,0.8234376 z m -0.470313,0 q 0,-0.3562501 -0.16875,-0.5578126 -0.16875,-0.203125 -0.473437,-0.203125 -0.309375,0 -0.478125,0.2015625 -0.16875,0.2 -0.16875,0.5593751 0,0.3625 0.171875,0.571875 0.173437,0.2078125 0.471875,0.2078125 0.309375,0 0.476562,-0.203125 0.16875,-0.203125 0.16875,-0.5765625 z"
       id="path227" />
    <path
       d="M 43.889688,7.3200002 42.930313,5.6246876 q 0.02813,0.2468751 0.02813,0.3968751 V 7.3200002 H 42.549063 V 5.1184376 h 0.526562 l 0.973438,1.7093751 Q 44.020938,6.5918752 44.020938,6.3981252 V 5.1184376 h 0.409375 v 2.2015626 z"
       id="path229" />
  </g>
  <g
     aria-label="VOICE VARIATION"
     id="text23"
     style="font-weight:bold;font-size:3.2px;font-family:'Liberation Sans';text-anchor:middle;fill:#1b1c1e">
    <path
       d="M 17.797187,7.0999999 H 17.329999 L 16.515937,4.8984374 h 0.48125 l 0.453125,1.4140625 q 0.04219,0.1375 0.115625,0.415625 l 0.03281,-0.134375 0.07969,-0.28125 0.451562,-1.4140625 h 0.476563 z"
       id="path232" />
    <path
       d="m 20.983124,5.9890624 q 0,0.34375 -0.135937,0.6046875 -0.135938,0.2609375 -0.389063,0.4 -0.253125,0.1375 -0.590625,0.1375 -0.51875,0 -0.814062,-0.3046875 -0.29375,-0.30625 -0.29375,-0.8375 0,-0.5296875 0.29375,-0.8265625 0.29375,-0.296875 0.817187,-0.296875 0.523438,0 0.817188,0.3 0.295312,0.3 0.295312,0.8234375 z m -0.470312,0 q 0,-0.35625 -0.16875,-0.5578125 -0.16875,-0.203125 -0.473438,-0.203125 -0.309375,0 -0.478125,0.2015625 -0.16875,0.2 -0.16875,0.559375 0,0.3625 0.171875,0.571875 0.173438,0.2078125 0.471875,0.2078125 0.309375,0 0.476563,-0.203125 0.16875,-0.203125 0.16875,-0.5765625 z"
       id="path234" />
    <path
       d="M 21.331562,7.0999999 V 4.8984374 H 21.7925 v 2.2015625 z"
       id="path236" />
    <path
       d="m 23.24875,6.7687499 q 0.417187,0 0.579687,-0.41875 L 24.23,6.5015624 q -0.129688,0.31875 -0.38125,0.475 -0.25,0.1546875 -0.6,0.1546875 -0.53125,0 -0.821875,-0.3 -0.289063,-0.3015625 -0.289063,-0.8421875 0,-0.5421875 0.279688,-0.8328125 0.279687,-0.290625 0.810937,-0.290625 0.3875,0 0.63125,0.15625 0.24375,0.1546875 0.342188,0.45625 l -0.40625,0.1109375 q -0.05156,-0.165625 -0.203125,-0.2625 -0.15,-0.098438 -0.354688,-0.098438 -0.3125,0 -0.475,0.19375 -0.160937,0.19375 -0.160937,0.5671875 0,0.3796875 0.165625,0.5796875 0.167187,0.2 0.48125,0.2 z"
       id="path238" />
    <path
       d="M 24.531562,7.0999999 V 4.8984374 h 1.73125 v 0.35625 H 24.9925 v 0.553125 h 1.175 v 0.35625 h -1.175 v 0.5796875 h 1.334375 v 0.35625 z"
       id="path240" />
    <path
       d="M 28.644062,7.0999999 H 28.176875 L 27.362812,4.8984374 h 0.48125 l 0.453125,1.4140625 q 0.04219,0.1375 0.115625,0.415625 l 0.03281,-0.134375 0.07969,-0.28125 0.451563,-1.4140625 h 0.476562 z"
       id="path242" />
    <path
       d="m 31.008125,7.0999999 -0.195313,-0.5625 H 29.97375 l -0.195313,0.5625 H 29.3175 l 0.803125,-2.2015625 h 0.54375 l 0.8,2.2015625 z m -0.615625,-1.8625 -0.0094,0.034375 q -0.01563,0.05625 -0.0375,0.128125 -0.02187,0.071875 -0.26875,0.790625 h 0.632812 L 30.4925,5.5578124 l -0.06719,-0.2125 z"
       id="path244" />
    <path
       d="M 33.275313,7.0999999 32.764375,6.2640624 H 32.22375 V 7.0999999 H 31.762813 V 4.8984374 h 1.1 q 0.39375,0 0.607812,0.1703125 0.214063,0.16875 0.214063,0.4859375 0,0.23125 -0.13125,0.4 -0.13125,0.1671875 -0.354688,0.2203125 l 0.595313,0.925 z m -0.05469,-1.5265625 q 0,-0.3171875 -0.40625,-0.3171875 H 32.22375 v 0.65 h 0.603125 q 0.19375,0 0.29375,-0.0875 0.1,-0.0875 0.1,-0.2453125 z"
       id="path246" />
    <path
       d="M 34.07375,7.0999999 V 4.8984374 h 0.460937 v 2.2015625 z"
       id="path248" />
    <path
       d="m 36.519063,7.0999999 -0.195313,-0.5625 h -0.839062 l -0.195313,0.5625 h -0.460937 l 0.803125,-2.2015625 h 0.54375 l 0.8,2.2015625 z m -0.615625,-1.8625 -0.0094,0.034375 q -0.01563,0.05625 -0.0375,0.128125 -0.02188,0.071875 -0.26875,0.790625 h 0.632812 l -0.217187,-0.6328125 -0.06719,-0.2125 z"
       id="path250" />
    <path
       d="M 38.029999,5.2546874 V 7.0999999 H 37.569062 V 5.2546874 h -0.710938 v -0.35625 h 1.884375 v 0.35625 z"
       id="path252" />
    <path
       d="M 38.990938,7.0999999 V 4.8984374 h 0.460938 v 2.2015625 z"
       id="path254" />
    <path
       d="m 42.020624,5.9890624 q 0,0.34375 -0.135937,0.6046875 -0.135938,0.2609375 -0.389063,0.4 -0.253125,0.1375 -0.590625,0.1375 -0.51875,0 -0.814062,-0.3046875 -0.29375,-0.30625 -0.29375,-0.8375 0,-0.5296875 0.29375,-0.8265625 0.29375,-0.296875 0.817187,-0.296875 0.523438,0 0.817188,0.3 0.295312,0.3 0.295312,0.8234375 z m -0.470312,0 q 0,-0.35625 -0.16875,-0.5578125 -0.16875,-0.203125 -0.473438,-0.203125 -0.309375,0 -0.478125,0.2015625 -0.16875,0.2 -0.16875,0.559375 0,0.3625 0.171875,0.571875 0.173438,0.2078125 0.471875,0.2078125 0.309375,0 0.476563,-0.203125 0.16875,-0.203125 0.16875,-0.5765625 z"
       id="path256" />
    <path
       d="M 43.709688,7.0999999 42.750313,5.4046874 q 0.02813,0.246875 0.02813,0.396875 V 7.0999999 H 42.369063 V 4.8984374 h 0.526562 l 0.973438,1.709375 Q 43.840938,6.3718749 43.840938,6.1781249 V 4.8984374 h 0.409375 v 2.2015625 z"
       id="path258" />
  </g>
  <rect
     x="2.500"
     y="47.000"
     width="55.960"
     height="20.500"
     rx="1.0"
     fill="url(#secgrad)"
     stroke="#8E9196"
     stroke-width="0.3"
     id="rect25" />
  <g
     aria-label="PAN CV"
     id="text27"
     style="font-weight:bold;font-size:3.2px;font-family:'Liberation Sans';text-anchor:middle;fill:#f4f5f7">
    <path
       d="m 26.758437,50.315312 q 0,0.2125 -0.09688,0.379688 -0.09688,0.167187 -0.278125,0.259375 Q 26.20375,51.045 25.955312,51.045 H 25.408437 V 51.82 H 24.9475 v -2.201563 h 0.989062 q 0.395313,0 0.607813,0.182813 0.214062,0.18125 0.214062,0.514062 z m -0.464062,0.0078 q 0,-0.346875 -0.409375,-0.346875 h -0.476563 v 0.714062 H 25.8975 q 0.190625,0 0.29375,-0.09375 0.103125,-0.09531 0.103125,-0.273437 z"
       id="path261" />
    <path
       d="M 28.400625,51.82 28.205312,51.2575 H 27.36625 L 27.170937,51.82 H 26.71 l 0.803125,-2.201563 h 0.54375 l 0.8,2.201563 z M 27.785,49.9575 l -0.0094,0.03437 q -0.01563,0.05625 -0.0375,0.128125 -0.02188,0.07188 -0.26875,0.790625 h 0.632812 L 27.885,50.277812 l -0.06719,-0.2125 z"
       id="path263" />
    <path
       d="m 30.495938,51.82 -0.959375,-1.695313 q 0.02812,0.246875 0.02812,0.396875 V 51.82 h -0.409375 v -2.201563 h 0.526562 l 0.973438,1.709375 q -0.02812,-0.235937 -0.02812,-0.429687 v -1.279688 h 0.409375 V 51.82 Z"
       id="path265" />
    <path
       d="m 33.383438,51.48875 q 0.417187,0 0.579687,-0.41875 l 0.401563,0.151562 q -0.129688,0.31875 -0.38125,0.475 -0.25,0.154688 -0.6,0.154688 -0.53125,0 -0.821875,-0.3 -0.289063,-0.301563 -0.289063,-0.842188 0,-0.542187 0.279688,-0.832812 0.279687,-0.290625 0.810937,-0.290625 0.3875,0 0.63125,0.15625 0.24375,0.154687 0.342188,0.45625 l -0.40625,0.110937 q -0.05156,-0.165625 -0.203125,-0.2625 -0.15,-0.09844 -0.354688,-0.09844 -0.3125,0 -0.475,0.19375 -0.160937,0.19375 -0.160937,0.567187 0,0.379688 0.165625,0.579688 0.167187,0.2 0.48125,0.2 z"
       id="path267" />
    <path
       d="m 35.755312,51.82 h -0.467187 l -0.814063,-2.201563 h 0.48125 l 0.453125,1.414063 q 0.04219,0.1375 0.115625,0.415625 l 0.03281,-0.134375 0.07969,-0.28125 0.451563,-1.414063 h 0.476562 z"
       id="path269" />
  </g>
  <g
     aria-label="PAN CV"
     id="text29"
     style="font-weight:bold;font-size:3.2px;font-family:'Liberation Sans';text-anchor:middle;fill:#1b1c1e">
    <path
       d="m 26.578437,50.095311 q 0,0.2125 -0.09688,0.379687 -0.09688,0.167188 -0.278125,0.259375 -0.179688,0.09063 -0.428125,0.09063 h -0.546875 v 0.775 h -0.460938 v -2.201562 h 0.989063 q 0.395312,0 0.607812,0.182812 0.214063,0.18125 0.214063,0.514063 z m -0.464063,0.0078 q 0,-0.346875 -0.409375,-0.346875 h -0.476562 v 0.714063 h 0.489062 q 0.190625,0 0.29375,-0.09375 0.103125,-0.09531 0.103125,-0.273438 z"
       id="path272" />
    <path
       d="m 28.220625,51.599998 -0.195313,-0.5625 h -0.839063 l -0.195312,0.5625 h -0.460938 l 0.803125,-2.201562 h 0.54375 l 0.800001,2.201562 z m -0.615626,-1.8625 -0.0094,0.03437 q -0.01563,0.05625 -0.0375,0.128125 -0.02187,0.07188 -0.26875,0.790625 h 0.632813 l -0.217188,-0.632812 -0.06719,-0.2125 z"
       id="path274" />
    <path
       d="m 30.315937,51.599998 -0.959375,-1.695312 q 0.02812,0.246875 0.02812,0.396875 v 1.298437 h -0.409375 v -2.201562 h 0.526563 l 0.973437,1.709375 q -0.02812,-0.235938 -0.02812,-0.429688 v -1.279687 h 0.409375 v 2.201562 z"
       id="path276" />
    <path
       d="m 33.203438,51.268748 q 0.417187,0 0.579687,-0.41875 l 0.401563,0.151563 q -0.129688,0.31875 -0.38125,0.475 -0.25,0.154687 -0.6,0.154687 -0.53125,0 -0.821875,-0.3 -0.289063,-0.301562 -0.289063,-0.842187 0,-0.542188 0.279688,-0.832813 0.279687,-0.290625 0.810937,-0.290625 0.3875,0 0.63125,0.15625 0.24375,0.154688 0.342188,0.45625 l -0.40625,0.110938 q -0.05156,-0.165625 -0.203125,-0.2625 -0.15,-0.09844 -0.354688,-0.09844 -0.3125,0 -0.475,0.19375 -0.160937,0.19375 -0.160937,0.567188 0,0.379687 0.165625,0.579687 0.167187,0.2 0.48125,0.2 z"
       id="path278" />
    <path
       d="m 35.575312,51.599998 h -0.467188 l -0.814062,-2.201562 h 0.48125 l 0.453125,1.414062 q 0.04219,0.1375 0.115625,0.415625 l 0.03281,-0.134375 0.07969,-0.28125 0.451562,-1.414062 h 0.476563 z"
       id="path280" />
  </g>
  <rect
     x="2.500"
     y="100.500"
     width="55.960"
     height="25.500"
     rx="1.0"
     fill="url(#secgrad)"
     stroke="#8E9196"
     stroke-width="0.3"
     id="rect31" />
  <g
     aria-label="PAN"
     id="text33"
     style="font-weight:bold;font-size:2.4px;font-family:'Liberation Sans';text-anchor:middle;fill:#1b1c1e">
    <path
       d="m 29.554218,27.871484 q 0,0.159375 -0.07266,0.284766 -0.07266,0.125391 -0.208594,0.194531 -0.134765,0.06797 -0.321094,0.06797 H 28.541718 V 29 h -0.345703 v -1.651172 h 0.741797 q 0.296484,0 0.455859,0.137109 0.160547,0.135938 0.160547,0.385547 z m -0.348047,0.0059 q 0,-0.260157 -0.307031,-0.260157 h -0.357422 v 0.535547 h 0.366797 q 0.142969,0 0.220313,-0.07031 0.07734,-0.07149 0.07734,-0.205078 z"
       id="path283" />
    <path
       d="M 30.785859,29 30.639375,28.578125 H 30.010078 L 29.863593,29 H 29.51789 l 0.602344,-1.651172 h 0.407812 l 0.6,1.651172 z m -0.461719,-1.396875 -0.007,0.02578 q -0.01172,0.04219 -0.02812,0.09609 -0.01641,0.05391 -0.201563,0.592969 h 0.47461 l -0.162891,-0.47461 -0.05039,-0.159375 z"
       id="path285" />
    <path
       d="m 32.357343,29 -0.719531,-1.271484 q 0.02109,0.185156 0.02109,0.297656 V 29 h -0.307031 v -1.651172 h 0.394921 l 0.730079,1.282031 q -0.02109,-0.176953 -0.02109,-0.322265 v -0.959766 h 0.307031 V 29 Z"
       id="path287" />
  </g>
  <g
     aria-label="OB-Xm"
     id="text35"
     style="font-style:italic;font-weight:bold;font-size:7.2px;font-family:'Liberation Sans';text-anchor:middle;fill:none;stroke:#ffffff;stroke-width:0.32">
    <path
       d="m 21.541523,75.472656 q 1.030078,0 1.624219,0.548438 0.594141,0.544922 0.594141,1.487109 0,0.86836 -0.372657,1.585547 -0.36914,0.713672 -1.033593,1.096875 -0.664454,0.379687 -1.51875,0.379687 -0.678516,0 -1.18125,-0.253124 -0.499219,-0.253125 -0.762891,-0.724219 -0.260156,-0.47461 -0.260156,-1.107422 0,-0.826172 0.36914,-1.539844 0.372657,-0.717187 1.030079,-1.093359 0.657421,-0.379688 1.511718,-0.379688 z m -0.04922,0.819141 q -0.569531,0 -0.970312,0.263672 -0.400781,0.263672 -0.61875,0.794531 -0.217969,0.530859 -0.217969,1.107422 0,0.646875 0.316407,0.973828 0.316406,0.323438 0.882421,0.323438 0.566016,0 0.966797,-0.263672 0.400781,-0.263672 0.61875,-0.783985 0.221485,-0.520312 0.221485,-1.114453 0,-0.61875 -0.309375,-0.959765 -0.30586,-0.341016 -0.889454,-0.341016 z"
       id="path290" />
    <path
       d="m 24.969257,75.546485 h 2.053125 q 0.882422,0 1.335938,0.291796 0.453515,0.288282 0.453515,0.854297 0,0.481641 -0.291796,0.791016 -0.288282,0.305859 -0.847266,0.421875 0.478125,0.08086 0.745312,0.372656 0.270704,0.288281 0.270704,0.706641 0,0.741797 -0.551954,1.128515 Q 27.588398,80.5 26.484492,80.5 h -2.478516 z m 0.646875,1.996874 h 1.033594 q 0.615235,0 0.871875,-0.161718 0.260156,-0.161719 0.260156,-0.53086 0,-0.28125 -0.20039,-0.407812 -0.200391,-0.126563 -0.671485,-0.126563 h -1.058203 z m -0.42539,2.186719 h 1.153125 q 0.734765,0 1.019531,-0.175781 0.284766,-0.179297 0.284766,-0.590625 0,-0.316406 -0.239063,-0.485156 -0.239062,-0.16875 -0.780469,-0.16875 h -1.160156 z"
       id="path292" />
    <path
       d="m 29.275898,79.062109 0.165234,-0.857812 h 1.828125 l -0.165235,0.857812 z"
       id="path294" />
    <path
       d="m 32.250116,75.546485 h 1.086329 l 0.7875,1.655859 1.413281,-1.655859 h 1.10039 L 34.528241,77.926563 35.818476,80.5 H 34.739179 L 33.849726,78.629688 32.250116,80.5 H 31.14621 l 2.292188,-2.5875 z"
       id="path296" />
    <path
       d="m 40.926679,77.364063 q -0.319921,0 -0.555468,0.270703 -0.235547,0.270703 -0.326953,0.73125 L 39.625898,80.5 h -0.980859 l 0.432422,-2.232422 q 0.05976,-0.319922 0.05976,-0.478125 0,-0.42539 -0.442968,-0.42539 -0.309375,0 -0.551953,0.267187 -0.239063,0.263672 -0.333985,0.745313 L 37.393476,80.5 H 36.40207 l 0.583594,-2.991797 q 0.07031,-0.333984 0.137109,-0.812109 h 0.95625 q 0,0.03867 -0.03867,0.274219 -0.03516,0.232031 -0.05976,0.376171 h 0.01055 q 0.270703,-0.407812 0.530859,-0.5625 0.263672,-0.154687 0.622266,-0.154687 0.435937,0 0.689062,0.210937 0.253125,0.207422 0.302344,0.604688 0.28125,-0.439453 0.569531,-0.625781 0.291797,-0.189844 0.675,-0.189844 0.485156,0 0.741797,0.256641 0.260156,0.25664 0.260156,0.741796 0,0.225 -0.07383,0.576563 L 41.85832,80.5 h -0.980859 l 0.428906,-2.204297 q 0.06328,-0.316406 0.06328,-0.488672 v -0.01758 q -0.01055,-0.42539 -0.442969,-0.42539 z"
       id="path298" />
  </g>
  <g
     aria-label="VOICES"
     id="text37"
     style="font-weight:bold;font-size:2.6px;font-family:'Liberation Sans';letter-spacing:0.4;text-anchor:middle;fill:#c9ccd1">
    <path
       d="m 25.626338,85.900002 h -0.37959 l -0.661426,-1.78877 h 0.391016 l 0.368164,1.148926 q 0.03428,0.111719 0.09395,0.337695 l 0.02666,-0.10918 0.06475,-0.228515 0.366895,-1.148926 h 0.387207 z"
       id="path301" />
    <path
       d="m 28.614912,84.997365 q 0,0.279297 -0.11045,0.491308 -0.110449,0.212012 -0.316113,0.325 -0.205664,0.111719 -0.479883,0.111719 -0.421484,0 -0.661425,-0.247558 -0.238672,-0.248829 -0.238672,-0.680469 0,-0.430371 0.238672,-0.671582 0.238671,-0.241211 0.663964,-0.241211 0.425293,0 0.663965,0.24375 0.239942,0.24375 0.239942,0.669043 z m -0.382129,0 q 0,-0.289453 -0.13711,-0.453223 -0.137109,-0.165039 -0.384668,-0.165039 -0.251367,0 -0.388476,0.16377 -0.137109,0.1625 -0.137109,0.454492 0,0.294531 0.139648,0.464648 0.140918,0.168848 0.383398,0.168848 0.251368,0 0.387207,-0.165039 0.13711,-0.165039 0.13711,-0.468457 z"
       id="path303" />
    <path
       d="m 29.298017,85.900002 v -1.78877 h 0.374512 v 1.78877 z"
       id="path305" />
    <path
       d="m 31.255732,85.630861 q 0.338965,0 0.470996,-0.340234 l 0.326269,0.123144 q -0.105371,0.258984 -0.309765,0.385938 -0.203125,0.125683 -0.4875,0.125683 -0.431641,0 -0.667774,-0.24375 -0.234863,-0.245019 -0.234863,-0.684277 0,-0.440527 0.227246,-0.67666 0.227246,-0.236133 0.658887,-0.236133 0.314844,0 0.512891,0.126953 0.198046,0.125684 0.278027,0.370703 l -0.330078,0.09014 q -0.0419,-0.13457 -0.165039,-0.213281 -0.121875,-0.07998 -0.288184,-0.07998 -0.253906,0 -0.385937,0.157422 -0.130762,0.157422 -0.130762,0.46084 0,0.308496 0.13457,0.470996 0.13584,0.1625 0.391016,0.1625 z"
       id="path307" />
    <path
       d="m 32.698017,85.900002 v -1.78877 h 1.406641 v 0.289453 h -1.032129 v 0.449414 h 0.954687 v 0.289453 h -0.954687 v 0.470996 h 1.08418 v 0.289454 z"
       id="path309" />
    <path
       d="m 36.290888,85.384572 q 0,0.262793 -0.195508,0.402441 -0.194238,0.138379 -0.571289,0.138379 -0.344043,0 -0.539551,-0.121875 -0.195508,-0.121875 -0.251367,-0.369433 l 0.361816,-0.05967 q 0.03682,0.142187 0.143457,0.206933 0.106641,0.06348 0.295801,0.06348 0.392285,0 0.392285,-0.238672 0,-0.07617 -0.0457,-0.125684 -0.04443,-0.04951 -0.126953,-0.08252 -0.08125,-0.03301 -0.313574,-0.07998 -0.200586,-0.04697 -0.279297,-0.0749 -0.07871,-0.0292 -0.142188,-0.06728 -0.06348,-0.03936 -0.10791,-0.09395 -0.04443,-0.05459 -0.06982,-0.128223 -0.02412,-0.07363 -0.02412,-0.168848 0,-0.24248 0.181543,-0.370703 0.182812,-0.129492 0.530664,-0.129492 0.332617,0 0.498926,0.104101 0.167578,0.104102 0.21582,0.344043 l -0.363086,0.04951 q -0.02793,-0.115527 -0.114258,-0.173926 -0.08506,-0.0584 -0.245019,-0.0584 -0.340235,0 -0.340235,0.213281 0,0.06982 0.03555,0.114258 0.03682,0.04443 0.107911,0.07617 0.07109,0.03047 0.288183,0.07744 0.257715,0.05459 0.368164,0.101563 0.111719,0.0457 0.176465,0.10791 0.06475,0.06094 0.09902,0.147266 0.03428,0.08506 0.03428,0.196777 z"
       id="path311" />
  </g>
  <rect
     x="29.500"
     y="104.000"
     width="28.500"
     height="19.500"
     rx="1.0"
     fill="#1C1D1F"
     id="rect39" />
  <circle
     cx="27.100"
     cy="22.152"
     r="0.26"
     fill="#2A2A2A"
     id="circle41" />
  <circle
     cx="25.277"
     cy="19.948"
     r="0.26"
     fill="#2A2A2A"
     id="circle43" />
  <circle
     cx="24.741"
     cy="17.139"
     r="0.26"
     fill="#2A2A2A"
     id="circle45" />
  <circle
     cx="25.625"
     cy="14.419"
     r="0.26"
     fill="#2A2A2A"
     id="circle47" />
  <circle
     cx="27.710"
     cy="12.461"
     r="0.26"
     fill="#2A2A2A"
     id="circle49" />
  <circle
     cx="30.480"
     cy="11.750"
     r="0.26"
     fill="#2A2A2A"
     id="circle51" />
  <circle
     cx="33.250"
     cy="12.461"
     r="0.26"
     fill="#2A2A2A"
     id="circle53" />
  <circle
     cx="35.335"
     cy="14.419"
     r="0.26"
     fill="#2A2A2A"
     id="circle55" />
  <circle
     cx="36.219"
     cy="17.139"
     r="0.26"
     fill="#2A2A2A"
     id="circle57" />
  <circle
     cx="35.683"
     cy="19.948"
     r="0.26"
     fill="#2A2A2A"
     id="circle59" />
  <circle
     cx="33.860"
     cy="22.152"
     r="0.26"
     fill="#2A2A2A"
     id="circle61" />
  <rect
     x="26.300"
     y="22.760"
     width="8.360"
     height="3.000"
     rx="0.35"
     fill="#151515"
     id="rect63" />
  <g
     aria-label="LEVELS"
     id="text65"
     style="font-weight:bold;font-size:2px;font-family:'Liberation Sans Narrow';text-anchor:middle;fill:#ffffff">
    <path
       d="m 27.399921,24.700001 v -1.375977 h 0.236329 v 1.153321 h 0.605468 v 0.222656 z"
       id="path314" />
    <path
       d="m 28.401875,24.700001 v -1.375977 h 0.887695 v 0.222656 h -0.651367 v 0.345704 h 0.602539 v 0.222656 h -0.602539 v 0.362305 h 0.683593 v 0.222656 z"
       id="path316" />
    <path
       d="M 30.054218,24.700001 H 29.81496 l -0.417968,-1.375977 h 0.24707 l 0.232422,0.883789 q 0,0 0.02148,0.08984 l 0.01953,0.08398 q 0.0098,0.04492 0.01758,0.08594 0.0078,-0.04004 0.01758,-0.08398 0.0078,-0.03711 0.01855,-0.08398 l 0.02149,-0.0918 0.231445,-0.883789 h 0.245117 z"
       id="path318" />
    <path
       d="m 30.589375,24.700001 v -1.375977 h 0.887695 v 0.222656 h -0.651367 v 0.345704 h 0.602539 v 0.222656 h -0.602539 v 0.362305 h 0.683593 v 0.222656 z"
       id="path320" />
    <path
       d="m 31.683125,24.700001 v -1.375977 h 0.236328 v 1.153321 h 0.605468 v 0.222656 z"
       id="path322" />
    <path
       d="m 33.605,24.303516 q 0,0.09375 -0.02832,0.170899 -0.02734,0.07617 -0.08691,0.130859 -0.05859,0.05469 -0.15039,0.08496 -0.09082,0.0293 -0.217774,0.0293 -0.112305,0 -0.198242,-0.02441 -0.08496,-0.02441 -0.146484,-0.07227 -0.06152,-0.04785 -0.09961,-0.118164 -0.03711,-0.07129 -0.05469,-0.163086 l 0.228515,-0.0459 q 0.0098,0.0459 0.02832,0.08398 0.01855,0.03809 0.05078,0.06641 0.03223,0.02734 0.08008,0.04297 0.04883,0.01465 0.118164,0.01465 0.120117,0 0.183594,-0.04395 0.06348,-0.04492 0.06348,-0.139648 0,-0.05664 -0.02539,-0.09277 -0.02539,-0.03613 -0.06836,-0.05957 -0.04199,-0.02344 -0.09766,-0.03906 -0.05469,-0.01563 -0.115234,-0.03027 0,0 -0.09668,-0.02832 -0.04785,-0.01465 -0.0918,-0.03516 -0.04297,-0.02051 -0.08105,-0.04883 -0.03711,-0.02832 -0.06543,-0.06934 -0.02734,-0.04199 -0.04297,-0.09766 -0.01563,-0.05566 -0.01563,-0.130859 0,-0.102539 0.0332,-0.175781 0.03418,-0.07324 0.09375,-0.119141 0.06055,-0.04687 0.142578,-0.06836 0.08203,-0.02149 0.179688,-0.02149 0.110351,0 0.189453,0.02149 0.0791,0.02051 0.131836,0.06348 0.05371,0.04297 0.08398,0.108399 0.03125,0.06445 0.0459,0.151367 l -0.228516,0.03809 q -0.01758,-0.08887 -0.07227,-0.133789 -0.05371,-0.04492 -0.154296,-0.04492 -0.0625,0 -0.104493,0.01367 -0.04102,0.0127 -0.06543,0.03516 -0.02441,0.02246 -0.03516,0.05273 -0.0098,0.0293 -0.0098,0.0625 0,0.05078 0.01953,0.08399 0.02051,0.03223 0.05664,0.05469 0.03613,0.02148 0.08594,0.03711 0.0498,0.01465 0.110352,0.03027 0.05273,0.01367 0.104492,0.0293 0.05176,0.01465 0.09863,0.03516 0.04785,0.02051 0.08887,0.0498 0.04102,0.0293 0.07031,0.07227 0.03027,0.04199 0.04687,0.100586 0.01758,0.05859 0.01758,0.138671 z"
       id="path324" />
  </g>
  <circle
     cx="5.650"
     cy="40.652"
     r="0.26"
     fill="#2A2A2A"
     id="circle67" />
  <circle
     cx="3.827"
     cy="38.448"
     r="0.26"
     fill="#2A2A2A"
     id="circle69" />
  <circle
     cx="3.291"
     cy="35.639"
     r="0.26"
     fill="#2A2A2A"
     id="circle71" />
  <circle
     cx="4.175"
     cy="32.919"
     r="0.26"
     fill="#2A2A2A"
     id="circle73" />
  <circle
     cx="6.260"
     cy="30.961"
     r="0.26"
     fill="#2A2A2A"
     id="circle75" />
  <circle
     cx="9.030"
     cy="30.250"
     r="0.26"
     fill="#2A2A2A"
     id="circle77" />
  <circle
     cx="11.800"
     cy="30.961"
     r="0.26"
     fill="#2A2A2A"
     id="circle79" />
  <circle
     cx="13.885"
     cy="32.919"
     r="0.26"
     fill="#2A2A2A"
     id="circle81" />
  <circle
     cx="14.769"
     cy="35.639"
     r="0.26"
     fill="#2A2A2A"
     id="circle83" />
  <circle
     cx="14.233"
     cy="38.448"
     r="0.26"
     fill="#2A2A2A"
     id="circle85" />
  <circle
     cx="12.410"
     cy="40.652"
     r="0.26"
     fill="#2A2A2A"
     id="circle87" />
  <rect
     x="7.750"
     y="26.460"
     width="2.560"
     height="3.000"
     rx="0.35"
     fill="#151515"
     id="rect89" />
  <g
     aria-label="1"
     id="text91"
     style="font-weight:bold;font-size:2px;font-family:'Liberation Sans Narrow';text-anchor:middle;fill:#ffffff">
    <path
       d="m 8.6774607,28.4 v -0.204102 h 0.2792968 v -0.938477 l -0.2705078,0.206055 v -0.21582 l 0.2822266,-0.223633 h 0.2128906 v 1.171875 H 9.440156 V 28.4 Z"
       id="path327" />
  </g>
  <circle
     cx="19.950"
     cy="40.652"
     r="0.26"
     fill="#2A2A2A"
     id="circle93" />
  <circle
     cx="18.127"
     cy="38.448"
     r="0.26"
     fill="#2A2A2A"
     id="circle95" />
  <circle
     cx="17.591"
     cy="35.639"
     r="0.26"
     fill="#2A2A2A"
     id="circle97" />
  <circle
     cx="18.475"
     cy="32.919"
     r="0.26"
     fill="#2A2A2A"
     id="circle99" />
  <circle
     cx="20.560"
     cy="30.961"
     r="0.26"
     fill="#2A2A2A"
     id="circle101" />
  <circle
     cx="23.330"
     cy="30.250"
     r="0.26"
     fill="#2A2A2A"
     id="circle103" />
  <circle
     cx="26.100"
     cy="30.961"
     r="0.26"
     fill="#2A2A2A"
     id="circle105" />
  <circle
     cx="28.185"
     cy="32.919"
     r="0.26"
     fill="#2A2A2A"
     id="circle107" />
  <circle
     cx="29.069"
     cy="35.639"
     r="0.26"
     fill="#2A2A2A"
     id="circle109" />
  <circle
     cx="28.533"
     cy="38.448"
     r="0.26"
     fill="#2A2A2A"
     id="circle111" />
  <circle
     cx="26.710"
     cy="40.652"
     r="0.26"
     fill="#2A2A2A"
     id="circle113" />
  <rect
     x="22.050"
     y="26.460"
     width="2.560"
     height="3.000"
     rx="0.35"
     fill="#151515"
     id="rect115" />
  <g
     aria-label="2"
     id="text117"
     style="font-weight:bold;font-size:2px;font-family:'Liberation Sans Narrow';text-anchor:middle;fill:#ffffff">
    <path
       d="m 22.930586,28.4 v -0.19043 q 0.03809,-0.102539 0.09375,-0.18457 0.05566,-0.08301 0.116211,-0.151368 0.06055,-0.06934 0.120117,-0.127929 0.05957,-0.05957 0.106445,-0.114258 0.04785,-0.05566 0.07715,-0.111328 0.03027,-0.05566 0.03027,-0.118164 0,-0.0918 -0.03809,-0.135742 -0.03711,-0.04395 -0.110351,-0.04395 -0.07227,0 -0.110352,0.04785 -0.03711,0.04687 -0.04883,0.141601 l -0.226563,-0.01563 q 0.0078,-0.08105 0.03223,-0.152343 0.02539,-0.07129 0.07129,-0.125 0.0459,-0.05371 0.115234,-0.08398 0.06934,-0.03125 0.166016,-0.03125 0.09082,0 0.161133,0.02637 0.07031,0.02539 0.118164,0.0752 0.04883,0.0498 0.07324,0.12207 0.02539,0.07129 0.02539,0.163086 0,0.09668 -0.03125,0.174805 -0.03125,0.07813 -0.08008,0.144531 -0.04883,0.06543 -0.108399,0.123047 l -0.115234,0.112304 q -0.05664,0.05469 -0.103516,0.110352 -0.0459,0.05566 -0.06836,0.119141 h 0.524414 V 28.4 Z"
       id="path330" />
  </g>
  <circle
     cx="34.250"
     cy="40.652"
     r="0.26"
     fill="#2A2A2A"
     id="circle119" />
  <circle
     cx="32.427"
     cy="38.448"
     r="0.26"
     fill="#2A2A2A"
     id="circle121" />
  <circle
     cx="31.891"
     cy="35.639"
     r="0.26"
     fill="#2A2A2A"
     id="circle123" />
  <circle
     cx="32.775"
     cy="32.919"
     r="0.26"
     fill="#2A2A2A"
     id="circle125" />
  <circle
     cx="34.860"
     cy="30.961"
     r="0.26"
     fill="#2A2A2A"
     id="circle127" />
  <circle
     cx="37.630"
     cy="30.250"
     r="0.26"
     fill="#2A2A2A"
     id="circle129" />
  <circle
     cx="40.400"
     cy="30.961"
     r="0.26"
     fill="#2A2A2A"
     id="circle131" />
  <circle
     cx="42.485"
     cy="32.919"
     r="0.26"
     fill="#2A2A2A"
     id="circle133" />
  <circle
     cx="43.369"
     cy="35.639"
     r="0.26"
     fill="#2A2A2A"
     id="circle135" />
  <circle
     cx="42.833"
     cy="38.448"
     r="0.26"
     fill="#2A2A2A"
     id="circle137" />
  <circle
     cx="41.010"
     cy="40.652"
     r="0.26"
     fill="#2A2A2A"
     id="circle139" />
  <rect
     x="36.350"
     y="26.460"
     width="2.560"
     height="3.000"
     rx="0.35"
     fill="#151515"
     id="rect141" />
  <g
     aria-label="3"
     id="text143"
     style="font-weight:bold;font-size:2px;font-family:'Liberation Sans Narrow';text-anchor:middle;fill:#ffffff">
    <path
       d="m 38.026485,28.018164 q 0,0.09375 -0.02539,0.168945 -0.02441,0.07422 -0.0752,0.126953 -0.05078,0.05273 -0.125977,0.08105 -0.07422,0.02734 -0.173828,0.02734 -0.110352,0 -0.186524,-0.03418 -0.0752,-0.03418 -0.124023,-0.08984 -0.04785,-0.05664 -0.07227,-0.12793 -0.02441,-0.07129 -0.03125,-0.144531 l 0.228516,-0.02441 q 0.0049,0.04395 0.01758,0.08105 0.01367,0.03613 0.03613,0.0625 0.02246,0.02637 0.05469,0.04102 0.03223,0.01367 0.07617,0.01367 0.08105,0 0.125977,-0.04883 0.04492,-0.04883 0.04492,-0.149414 0,-0.06152 -0.02148,-0.09863 -0.02051,-0.03711 -0.05371,-0.05664 -0.03223,-0.02051 -0.07031,-0.02734 -0.03711,-0.0068 -0.07031,-0.0068 h -0.0791 v -0.22168 h 0.07422 q 0.0332,0 0.06836,-0.0078 0.03516,-0.0078 0.0625,-0.02832 0.02832,-0.02051 0.0459,-0.05664 0.01758,-0.03711 0.01758,-0.09375 0,-0.08496 -0.03906,-0.132813 -0.03809,-0.04883 -0.113281,-0.04883 -0.06934,0 -0.112305,0.04687 -0.04297,0.04687 -0.04883,0.132813 l -0.225586,-0.01953 q 0.0098,-0.09668 0.04395,-0.167968 0.03418,-0.07129 0.08594,-0.118164 0.05176,-0.04687 0.118164,-0.06934 0.06738,-0.02344 0.142578,-0.02344 0.09961,0 0.170898,0.0293 0.07129,0.0293 0.117188,0.0791 0.0459,0.0498 0.06738,0.116211 0.02148,0.06641 0.02148,0.141601 0,0.06055 -0.01465,0.113281 -0.01465,0.05176 -0.04395,0.09375 -0.0293,0.04102 -0.0752,0.07129 -0.04492,0.0293 -0.107422,0.04395 v 0.0039 q 0.06934,0.0098 0.120117,0.03906 0.05176,0.02832 0.08496,0.07129 0.0332,0.04297 0.04883,0.09766 0.01563,0.05371 0.01563,0.114258 z"
       id="path333" />
  </g>
  <circle
     cx="48.550"
     cy="40.652"
     r="0.26"
     fill="#2A2A2A"
     id="circle145" />
  <circle
     cx="46.727"
     cy="38.448"
     r="0.26"
     fill="#2A2A2A"
     id="circle147" />
  <circle
     cx="46.191"
     cy="35.639"
     r="0.26"
     fill="#2A2A2A"
     id="circle149" />
  <circle
     cx="47.075"
     cy="32.919"
     r="0.26"
     fill="#2A2A2A"
     id="circle151" />
  <circle
     cx="49.160"
     cy="30.961"
     r="0.26"
     fill="#2A2A2A"
     id="circle153" />
  <circle
     cx="51.930"
     cy="30.250"
     r="0.26"
     fill="#2A2A2A"
     id="circle155" />
  <circle
     cx="54.700"
     cy="30.961"
     r="0.26"
     fill="#2A2A2A"
     id="circle157" />
  <circle
     cx="56.785"
     cy="32.919"
     r="0.26"
     fill="#2A2A2A"
     id="circle159" />
  <circle
     cx="57.669"
     cy="35.639"
     r="0.26"
     fill="#2A2A2A"
     id="circle161" />
  <circle
     cx="57.133"
     cy="38.448"
     r="0.26"
     fill="#2A2A2A"
     id="circle163" />
  <circle
     cx="55.310"
     cy="40.652"
     r="0.26"
     fill="#2A2A2A"
     id="circle165" />
  <rect
     x="50.650"
     y="26.460"
     width="2.560"
     height="3.000"
     rx="0.35"
     fill="#151515"
     id="rect167" />
  <g
     aria-label="4"
     id="text169"
     style="font-weight:bold;font-size:2px;font-family:'Liberation Sans Narrow';text-anchor:middle;fill:#ffffff">
    <path
       d="M 52.226875,28.119726 V 28.4 H 52.012032 V 28.119726 H 51.49836 v -0.206055 l 0.476562,-0.889648 h 0.251953 v 0.891602 h 0.150391 v 0.204101 z m -0.214843,-0.654297 q 0,-0.0166 0,-0.04297 9.76e-4,-0.02734 0.002,-0.05566 9.76e-4,-0.02832 0.002,-0.05371 0.002,-0.02637 0.0029,-0.04102 -0.0039,0.01074 -0.0127,0.03027 l -0.01953,0.04297 q -0.01074,0.02344 -0.02246,0.0459 l -0.02051,0.03906 -0.261719,0.485352 h 0.330079 z"
       id="path336" />
  </g>
  <rect
     x="7.750"
     y="54.960"
     width="2.560"
     height="3.000"
     rx="0.35"
     fill="#151515"
     id="rect171" />
  <g
     aria-label="1"
     id="text173"
     style="font-weight:bold;font-size:2px;font-family:'Liberation Sans Narrow';text-anchor:middle;fill:#ffffff">
    <path
       d="M 8.6774607,56.900002 V 56.6959 h 0.2792968 v -0.938477 l -0.2705078,0.206055 v -0.21582 L 8.9684763,55.524025 H 9.1813669 V 56.6959 H 9.440156 v 0.204102 z"
       id="path339" />
  </g>
  <rect
     x="22.050"
     y="54.960"
     width="2.560"
     height="3.000"
     rx="0.35"
     fill="#151515"
     id="rect175" />
  <g
     aria-label="2"
     id="text177"
     style="font-weight:bold;font-size:2px;font-family:'Liberation Sans Narrow';text-anchor:middle;fill:#ffffff">
    <path
       d="m 22.930586,56.900002 v -0.19043 q 0.03809,-0.102539 0.09375,-0.18457 0.05566,-0.08301 0.116211,-0.151368 0.06055,-0.06934 0.120117,-0.127929 0.05957,-0.05957 0.106445,-0.114258 0.04785,-0.05566 0.07715,-0.111328 0.03027,-0.05566 0.03027,-0.118164 0,-0.0918 -0.03809,-0.135743 -0.03711,-0.04395 -0.110351,-0.04395 -0.07227,0 -0.110352,0.04785 -0.03711,0.04687 -0.04883,0.141601 l -0.226563,-0.01563 q 0.0078,-0.08105 0.03223,-0.152343 0.02539,-0.07129 0.07129,-0.125 0.0459,-0.05371 0.115234,-0.08398 0.06934,-0.03125 0.166016,-0.03125 0.09082,0 0.161133,0.02637 0.07031,0.02539 0.118164,0.0752 0.04883,0.0498 0.07324,0.12207 0.02539,0.07129 0.02539,0.163086 0,0.09668 -0.03125,0.174805 -0.03125,0.07813 -0.08008,0.144531 -0.04883,0.06543 -0.108399,0.123047 l -0.115234,0.112304 q -0.05664,0.05469 -0.103516,0.110352 -0.0459,0.05566 -0.06836,0.119141 h 0.524414 v 0.225586 z"
       id="path342" />
  </g>
  <rect
     x="36.350"
     y="54.960"
     width="2.560"
     height="3.000"
     rx="0.35"
     fill="#151515"
     id="rect179" />
  <g
     aria-label="3"
     id="text181"
     style="font-weight:bold;font-size:2px;font-family:'Liberation Sans Narrow';text-anchor:middle;fill:#ffffff">
    <path
       d="m 38.026485,56.518166 q 0,0.09375 -0.02539,0.168945 -0.02441,0.07422 -0.0752,0.126953 -0.05078,0.05273 -0.125977,0.08105 -0.07422,0.02734 -0.173828,0.02734 -0.110352,0 -0.186524,-0.03418 -0.0752,-0.03418 -0.124023,-0.08984 -0.04785,-0.05664 -0.07227,-0.12793 -0.02441,-0.07129 -0.03125,-0.144531 l 0.228516,-0.02441 q 0.0049,0.04395 0.01758,0.08105 0.01367,0.03613 0.03613,0.0625 0.02246,0.02637 0.05469,0.04102 0.03223,0.01367 0.07617,0.01367 0.08105,0 0.125977,-0.04883 0.04492,-0.04883 0.04492,-0.149414 0,-0.06152 -0.02148,-0.09863 -0.02051,-0.03711 -0.05371,-0.05664 -0.03223,-0.02051 -0.07031,-0.02734 -0.03711,-0.0068 -0.07031,-0.0068 h -0.0791 v -0.22168 h 0.07422 q 0.0332,0 0.06836,-0.0078 0.03516,-0.0078 0.0625,-0.02832 0.02832,-0.02051 0.0459,-0.05664 0.01758,-0.03711 0.01758,-0.09375 0,-0.08496 -0.03906,-0.132813 -0.03809,-0.04883 -0.113281,-0.04883 -0.06934,0 -0.112305,0.04687 -0.04297,0.04687 -0.04883,0.132813 l -0.225586,-0.01953 q 0.0098,-0.09668 0.04395,-0.167968 0.03418,-0.07129 0.08594,-0.118164 0.05176,-0.04687 0.118164,-0.06934 0.06738,-0.02344 0.142578,-0.02344 0.09961,0 0.170898,0.0293 0.07129,0.0293 0.117188,0.0791 0.0459,0.0498 0.06738,0.116211 0.02148,0.06641 0.02148,0.141601 0,0.06055 -0.01465,0.113281 -0.01465,0.05176 -0.04395,0.09375 -0.0293,0.04102 -0.0752,0.07129 -0.04492,0.0293 -0.107422,0.04395 v 0.0039 q 0.06934,0.0098 0.120117,0.03906 0.05176,0.02832 0.08496,0.07129 0.0332,0.04297 0.04883,0.09766 0.01563,0.05371 0.01563,0.114258 z"
       id="path345" />
  </g>
  <rect
     x="50.650"
     y="54.960"
     width="2.560"
     height="3.000"
     rx="0.35"
     fill="#151515"
     id="rect183" />
  <g
     aria-label="4"
     id="text185"
     style="font-weight:bold;font-size:2px;font-family:'Liberation Sans Narrow';text-anchor:middle;fill:#ffffff">
    <path
       d="m 52.226875,56.619728 v 0.280274 H 52.012032 V 56.619728 H 51.49836 v -0.206055 l 0.476562,-0.889648 h 0.251953 v 0.891602 h 0.150391 v 0.204101 z m -0.214843,-0.654297 q 0,-0.0166 0,-0.04297 9.76e-4,-0.02734 0.002,-0.05566 9.76e-4,-0.02832 0.002,-0.05371 0.002,-0.02637 0.0029,-0.04102 -0.0039,0.01074 -0.0127,0.03027 l -0.01953,0.04297 q -0.01074,0.02344 -0.02246,0.0459 l -0.02051,0.03906 -0.261719,0.485352 h 0.330079 z"
       id="path348" />
  </g>
  <rect
     x="10.140"
     y="105.960"
     width="3.720"
     height="3.000"
     rx="0.35"
     fill="#151515"
     id="rect187" />
  <g
     aria-label="IN"
     id="text189"
     style="font-weight:bold;font-size:2px;font-family:'Liberation Sans Narrow';text-anchor:middle;fill:#ffffff">
    <path
       d="m 11.289551,107.9 v -1.37598 h 0.237304 V 107.9 Z"
       id="path351" />
    <path
       d="m 12.432129,107.9 -0.491211,-1.05957 q 0.0039,0.043 0.0078,0.0859 0.0029,0.0371 0.0049,0.0801 0.002,0.043 0.002,0.082 V 107.9 h -0.209961 v -1.37598 h 0.269532 l 0.499023,1.06836 q -0.0039,-0.041 -0.0068,-0.0859 -0.0029,-0.0381 -0.0059,-0.0859 -0.002,-0.0478 -0.002,-0.0967 v -0.79981 h 0.209961 V 107.9 Z"
       id="path353" />
  </g>
  <rect
     x="35.720"
     y="105.960"
     width="2.560"
     height="3.000"
     rx="0.35"
     fill="#151515"
     id="rect191" />
  <g
     aria-label="L"
     id="text193"
     style="font-weight:bold;font-size:2px;font-family:'Liberation Sans Narrow';text-anchor:middle;fill:#ff3b30">
    <path
       d="m 36.608398,107.9 v -1.37598 h 0.236329 v 1.15333 h 0.605468 V 107.9 Z"
       id="path356" />
  </g>
  <rect
     x="49.220"
     y="105.960"
     width="2.560"
     height="3.000"
     rx="0.35"
     fill="#151515"
     id="rect195" />
  <g
     aria-label="R"
     id="text197"
     style="font-weight:bold;font-size:2px;font-family:'Liberation Sans Narrow';text-anchor:middle;fill:#ff3b30">
    <path
       d="M 50.792969,107.9 50.53125,107.37754 H 50.253906 V 107.9 h -0.236328 v -1.37598 h 0.563477 q 0.105468,0 0.18457,0.0293 0.0791,0.0283 0.131836,0.082 0.05273,0.0527 0.07813,0.12891 0.02637,0.0752 0.02637,0.16992 0,0.0772 -0.01855,0.1416 -0.01855,0.0635 -0.05176,0.11328 -0.0332,0.0498 -0.0791,0.084 -0.0459,0.0332 -0.09961,0.0488 L 51.058594,107.9 Z m -0.02832,-0.9541 q 0,-0.10059 -0.05469,-0.14941 -0.05371,-0.0488 -0.15332,-0.0488 h -0.302735 v 0.40625 H 50.5625 q 0.05273,0 0.09082,-0.0147 0.03809,-0.0156 0.0625,-0.043 0.02441,-0.0283 0.03613,-0.0664 0.0127,-0.0381 0.0127,-0.084 z"
       id="path359" />
  </g>
</svg>
